<svg width="198" height="212" viewBox="0 0 198 212" fill="none" xmlns="http://www.w3.org/2000/svg">
<path d="M24.0606 73.3154L148.292 38.5997L164.936 103.38L40.7044 138.096L24.0606 73.3154Z" fill="#705B3E"/>
<path d="M164.936 103.38C174.128 139.157 153.77 175.932 119.464 185.518C85.1584 195.105 49.8966 173.873 40.7044 138.096C31.5123 102.319 51.8707 65.5441 86.1763 55.9576C120.482 46.3711 155.744 67.6029 164.936 103.38Z" fill="#705B3E"/>
<path d="M9.98631 81.8772C6.92226 69.9514 13.7084 57.6932 25.1436 54.4977L137.642 23.0607C149.077 19.8652 160.831 26.9425 163.895 38.8683L164.265 40.3078C167.329 52.2336 160.543 64.4918 149.108 67.6873L36.6094 99.1243C25.1742 102.32 13.4202 95.2425 10.3562 83.3167L9.98631 81.8772Z" fill="#4E3D25"/>
<path d="M71.2366 32.3598C70.011 27.5895 72.7255 22.6862 77.2995 21.408C81.8736 20.1298 86.5752 22.9607 87.8008 27.731L90.7597 39.2475C91.9854 44.0178 89.2709 48.9211 84.6968 50.1993C80.1227 51.4775 75.4212 48.6466 74.1955 43.8763L71.2366 32.3598Z" fill="#4E3D25"/>
<path d="M126.636 178.885C127.862 183.656 125.148 188.559 120.574 189.837C115.999 191.115 111.298 188.284 110.072 183.514C108.847 178.744 111.561 173.841 116.135 172.562C120.709 171.284 125.411 174.115 126.636 178.885Z" fill="#705B3E"/>
<path d="M76.6657 133.256C77.8913 138.026 75.1768 142.93 70.6028 144.208C66.0287 145.486 61.3271 142.655 60.1015 137.885C58.8759 133.114 61.5903 128.211 66.1644 126.933C70.7385 125.655 75.44 128.486 76.6657 133.256Z" fill="black"/>
<path d="M148.442 113.199C149.668 117.969 146.954 122.872 142.379 124.15C137.805 125.428 133.104 122.598 131.878 117.827C130.653 113.057 133.367 108.154 137.941 106.876C142.515 105.597 147.217 108.428 148.442 113.199Z" fill="black"/>
<path d="M160.423 125.279C160.831 126.87 157.454 129.195 152.88 130.473C148.306 131.751 144.267 131.498 143.859 129.908C143.45 128.318 146.827 125.993 151.401 124.715C155.975 123.436 160.014 123.689 160.423 125.279Z" fill="#F069DE" fill-opacity="0.49"/>
<path d="M72.0803 149.965C72.4888 151.555 69.112 153.88 64.5379 155.158C59.9638 156.436 55.9246 156.183 55.5161 154.593C55.1075 153.003 58.4844 150.678 63.0585 149.4C67.6325 148.122 71.6717 148.374 72.0803 149.965Z" fill="#F069DE" fill-opacity="0.49"/>
<path d="M76.5528 18.5024C82.8207 16.7509 89.0781 20.6491 90.6902 26.9237L92.1628 32.6555L136.895 20.1552C150.024 16.4864 163.333 24.6312 166.784 38.0612L167.154 39.5008C169.754 49.622 166.066 60.0621 158.471 66.1629L168.572 105.478L168.512 105.495C175.594 138.61 158.784 172.081 129.229 185.185C127.999 188.738 125.175 191.665 121.32 192.743C117.465 193.82 113.615 192.758 110.846 190.322C78.9692 194.385 48.3646 174.163 38.6218 141.792L38.5616 141.808L28.5339 102.779C18.7096 101.741 10.1369 94.5159 7.46692 84.1243L7.09706 82.6848C3.64657 69.2549 11.2679 55.2613 24.3967 51.5923L69.8196 38.8991L68.3469 33.1673C66.7348 26.8929 70.285 20.2541 76.5528 18.5024Z" stroke="#2D4A2D" stroke-width="6"/>
<path d="M97.8032 129.006C101.313 131.857 107.429 134.801 111.554 125.348C111.572 125.282 111.589 125.216 111.607 125.149" stroke="black" stroke-width="3" stroke-linecap="round"/>
</svg>
